<svg width="30" height="30" viewBox="0 0 30 30" fill="none" xmlns="http://www.w3.org/2000/svg">
<circle cx="15" cy="15" r="15" fill="#1B1B1B"/>
<path d="M20.7143 7.5H9.28571C8.3 7.5 7.5 8.3 7.5 9.28571V20.7143C7.5 21.7 8.3 22.5 9.28571 22.5H20.7143C21.7 22.5 22.5 21.7 22.5 20.7143V9.28571C22.5 8.3 21.7 7.5 20.7143 7.5ZM12.1429 13.2143V20H10V13.2143H12.1429ZM10 11.2393C10 10.7393 10.4286 10.3571 11.0714 10.3571C11.7143 10.3571 12.1179 10.7393 12.1429 11.2393C12.1429 11.7393 11.7429 12.1429 11.0714 12.1429C10.4286 12.1429 10 11.7393 10 11.2393ZM20 20H17.8571C17.8571 20 17.8571 16.6929 17.8571 16.4286C17.8571 15.7143 17.5 15 16.6071 14.9857H16.5786C15.7143 14.9857 15.3571 15.7214 15.3571 16.4286C15.3571 16.7536 15.3571 20 15.3571 20H13.2143V13.2143H15.3571V14.1286C15.3571 14.1286 16.0464 13.2143 17.4321 13.2143C18.85 13.2143 20 14.1893 20 16.1643V20Z" fill="white"/>
</svg>
