<svg width="158" height="50" viewBox="0 0 158 50" fill="none" xmlns="http://www.w3.org/2000/svg">
<g filter="url(#filter0_i_72_116)">
<path d="M36.0135 40.2297C60.0357 77.6746 50.2991 -6.69518 28.0386 23.0446C26.6305 23.3276 25.8409 22.6904 24.7411 22.6761C23.7997 22.6639 22.9386 23.3276 21.8043 23.0446C-0.170197 -6.69517 -10.0685 77.6746 13.9222 40.2297C22.6073 40.7241 27.4432 40.7157 36.0135 40.2297Z" fill="url(#paint0_linear_72_116)"/>
<path d="M21.8043 23.0446C22.9386 23.3276 23.7997 22.6639 24.7411 22.6761C25.8409 22.6904 26.6305 23.3276 28.0386 23.0446C27.8582 22.5822 26.8041 20.9817 25.4047 20.5896C35.2148 12.4009 18.4471 8.16216 14.5561 6.91212C9.60499 5.32153 13.1862 -1.89412 22.4402 2.57538C23.2987 2.99003 23.4657 2.05725 22.4402 1.55906C11.951 -3.53666 8.92475 5.31727 13.1862 7.34035C16.8779 9.09292 34.58 12.6174 24.1951 20.5896C22.4948 21.2756 21.8043 23.0446 21.8043 23.0446Z" fill="url(#paint1_linear_72_116)"/>
</g>
<path d="M60.4254 10.88C60.4254 9.81333 60.7854 8.99333 61.5054 8.42C62.2254 7.83333 63.2587 7.54 64.6054 7.54C65.9654 7.54 66.9787 7.68 67.6454 7.96V10.84C66.8321 10.4933 65.9054 10.32 64.8654 10.32C64.3321 10.32 63.9721 10.4067 63.7854 10.58C63.5987 10.74 63.5054 10.9733 63.5054 11.28V11.58C63.5054 11.9533 63.5654 12.2333 63.6854 12.42C63.8187 12.5933 64.0987 12.7933 64.5254 13.02L66.8054 14.3C67.8987 14.9 68.4454 15.8 68.4454 17V18.24C68.4454 19.32 68.0454 20.1533 67.2454 20.74C66.4454 21.3133 65.3187 21.6 63.8654 21.6C62.4254 21.6 61.3387 21.4467 60.6054 21.14V18.24C61.5121 18.6267 62.5387 18.82 63.6854 18.82C64.8321 18.82 65.4054 18.4933 65.4054 17.84V17.54C65.4054 17.2333 65.3387 17.0067 65.2054 16.86C65.0854 16.7 64.8521 16.5267 64.5054 16.34L62.3654 15.18C61.0721 14.46 60.4254 13.4467 60.4254 12.14V10.88ZM74.3145 12.9C74.3145 12.58 74.1211 12.42 73.7345 12.42C73.3611 12.42 73.0278 12.5067 72.7345 12.68V18.72H73.5345C74.0545 18.72 74.3145 18.5067 74.3145 18.08V12.9ZM72.5545 10.22C73.2611 9.83333 74.0078 9.64 74.7945 9.64C75.5945 9.64 76.2211 9.85333 76.6745 10.28C77.1411 10.6933 77.3745 11.32 77.3745 12.16V18.56C77.3745 19.56 77.0945 20.3 76.5345 20.78C75.9878 21.26 75.2478 21.5 74.3145 21.5H72.7345V24.48H69.7145V9.7H72.5545V10.22ZM80.4723 9.36C79.3656 9.36 78.8123 8.84 78.8123 7.8C78.8123 6.74667 79.3656 6.22 80.4723 6.22C81.5923 6.22 82.1523 6.74667 82.1523 7.8C82.1523 8.84 81.5923 9.36 80.4723 9.36ZM78.9723 10.02H81.9923V21.5H78.9723V10.02ZM83.5965 13.08C83.5965 10.76 84.9032 9.6 87.5165 9.6C88.4498 9.6 89.2832 9.7 90.0165 9.9V12.68C89.3098 12.4667 88.6765 12.36 88.1165 12.36C87.5698 12.36 87.1832 12.4333 86.9565 12.58C86.7298 12.7133 86.6165 12.9667 86.6165 13.34V17.86C86.6165 18.2333 86.7298 18.4933 86.9565 18.64C87.1832 18.7733 87.5698 18.84 88.1165 18.84C88.6765 18.84 89.3098 18.7333 90.0165 18.52V21.3C89.2832 21.5 88.4498 21.6 87.5165 21.6C84.9032 21.6 83.5965 20.44 83.5965 18.12V13.08ZM96.276 9.7H99.176L96.376 24.48H93.456L94.016 21.5H92.976L90.616 9.7H93.576C94.216 13.1 94.596 15.2933 94.716 16.28C94.836 17.2533 94.916 18.2 94.956 19.12C95.0227 17.5067 95.2493 15.6 95.636 13.4L96.276 9.7ZM77.3543 35.136C77.3543 34.3987 77.6343 33.8153 78.1943 33.386C78.7636 32.9473 79.5709 32.728 80.6163 32.728C81.4003 32.728 82.0583 32.8167 82.5903 32.994V34.982C82.0303 34.7673 81.4703 34.66 80.9103 34.66C80.3503 34.66 79.9723 34.7253 79.7763 34.856C79.5803 34.9867 79.4823 35.164 79.4823 35.388V39.994C79.4823 40.218 79.5523 40.3907 79.6923 40.512C79.8323 40.624 80.0376 40.68 80.3083 40.68C80.5883 40.68 80.8029 40.6427 80.9523 40.568V37.292H82.9963V41.982C82.2683 42.374 81.4049 42.57 80.4063 42.57C79.4076 42.57 78.6469 42.3647 78.1243 41.954C77.6109 41.5433 77.3543 40.9647 77.3543 40.218V35.136ZM85.7511 40.106V40.498C85.7511 40.8153 85.9144 40.974 86.2411 40.974C86.5211 40.974 86.7544 40.9227 86.9411 40.82V39.126L86.2971 39.294C86.0638 39.3593 85.9144 39.4433 85.8491 39.546C85.7838 39.6487 85.7511 39.8353 85.7511 40.106ZM84.1131 34.436C84.6264 34.2587 85.3591 34.17 86.3111 34.17C87.2631 34.17 87.9444 34.38 88.3551 34.8C88.7658 35.2107 88.9711 35.836 88.9711 36.676V42.5H86.9971V41.898C86.7264 42.318 86.2551 42.528 85.5831 42.528C84.9111 42.528 84.4258 42.3693 84.1271 42.052C83.8284 41.7253 83.6791 41.2073 83.6791 40.498V40.022C83.6791 39.3967 83.8144 38.916 84.0851 38.58C84.3651 38.244 84.8131 37.992 85.4291 37.824L86.9551 37.432V36.662C86.9458 36.4193 86.8758 36.2513 86.7451 36.158C86.6144 36.0553 86.3764 36.004 86.0311 36.004C85.2564 36.004 84.6171 36.102 84.1131 36.298V34.436ZM94.9984 34.674C95.6051 34.3567 96.1977 34.198 96.7764 34.198C97.3644 34.198 97.8171 34.3473 98.1344 34.646C98.4611 34.9353 98.6244 35.374 98.6244 35.962V42.5H96.4824V36.48C96.4824 36.256 96.3564 36.144 96.1044 36.144C95.8617 36.144 95.6377 36.2047 95.4324 36.326C95.4417 36.3447 95.4464 36.3913 95.4464 36.466V42.5H93.3044V36.48C93.3044 36.256 93.1831 36.144 92.9404 36.144C92.6977 36.144 92.4737 36.2047 92.2684 36.326V42.5H90.1544V34.24H92.1424V34.604C92.6371 34.3333 93.1551 34.198 93.6964 34.198C94.2471 34.198 94.6811 34.3567 94.9984 34.674ZM99.6804 40.148V36.354C99.6804 35.6447 99.8998 35.094 100.338 34.702C100.777 34.3007 101.44 34.1 102.326 34.1C104.034 34.1 104.888 34.8513 104.888 36.354V39.196H101.71V39.98C101.71 40.26 101.785 40.4607 101.934 40.582C102.093 40.694 102.434 40.75 102.956 40.75C103.488 40.75 104.067 40.6567 104.692 40.47V42.318C104.039 42.4953 103.339 42.584 102.592 42.584C100.651 42.584 99.6804 41.772 99.6804 40.148ZM101.71 37.586H102.942V36.382C102.942 36.0273 102.737 35.85 102.326 35.85C101.916 35.85 101.71 36.0273 101.71 36.382V37.586ZM108.111 35.066C108.111 34.3193 108.363 33.7453 108.867 33.344C109.371 32.9333 110.094 32.728 111.037 32.728C111.989 32.728 112.698 32.826 113.165 33.022V35.038C112.596 34.7953 111.947 34.674 111.219 34.674C110.846 34.674 110.594 34.7347 110.463 34.856C110.332 34.968 110.267 35.1313 110.267 35.346V35.556C110.267 35.8173 110.309 36.0133 110.393 36.144C110.486 36.2653 110.682 36.4053 110.981 36.564L112.577 37.46C113.342 37.88 113.725 38.51 113.725 39.35V40.218C113.725 40.974 113.445 41.5573 112.885 41.968C112.325 42.3693 111.536 42.57 110.519 42.57C109.511 42.57 108.75 42.4627 108.237 42.248V40.218C108.872 40.4887 109.59 40.624 110.393 40.624C111.196 40.624 111.597 40.3953 111.597 39.938V39.728C111.597 39.5133 111.55 39.3547 111.457 39.252C111.373 39.14 111.21 39.0187 110.967 38.888L109.469 38.076C108.564 37.572 108.111 36.8627 108.111 35.948V35.066ZM117.441 40.722C117.731 40.722 117.997 40.6567 118.239 40.526V42.402C117.922 42.5513 117.507 42.626 116.993 42.626C116.2 42.626 115.635 42.4393 115.299 42.066C114.963 41.6927 114.795 41.1513 114.795 40.442V36.018H114.053V34.24H114.893L115.537 32.812H116.909V34.24H118.155V36.018H116.909V40.218C116.909 40.554 117.087 40.722 117.441 40.722ZM122.248 34.24H124.362V42.5H122.374V42.122C121.917 42.374 121.394 42.5 120.806 42.5C120.227 42.5 119.784 42.3413 119.476 42.024C119.168 41.7067 119.014 41.2493 119.014 40.652V34.24H121.156V40.232C121.156 40.4747 121.291 40.596 121.562 40.596C121.833 40.596 122.061 40.54 122.248 40.428V34.24ZM128.713 36.116H128.251C127.813 36.116 127.593 36.3493 127.593 36.816V40.274C127.593 40.5167 127.733 40.638 128.013 40.638C128.293 40.638 128.527 40.582 128.713 40.47V36.116ZM128.699 32.042H130.827V42.5H128.769V41.912C128.433 42.3413 127.953 42.556 127.327 42.556C126.711 42.556 126.249 42.388 125.941 42.052C125.633 41.716 125.479 41.2493 125.479 40.652V36.746C125.479 35.962 125.694 35.3507 126.123 34.912C126.553 34.464 127.206 34.24 128.083 34.24H128.699V32.042ZM133.136 34.002C132.361 34.002 131.974 33.638 131.974 32.91C131.974 32.1727 132.361 31.804 133.136 31.804C133.92 31.804 134.312 32.1727 134.312 32.91C134.312 33.638 133.92 34.002 133.136 34.002ZM132.086 34.464H134.2V42.5H132.086V34.464ZM138.571 36.424C138.571 36.0693 138.375 35.892 137.983 35.892C137.591 35.892 137.395 36.0693 137.395 36.424V40.316C137.395 40.6707 137.591 40.848 137.983 40.848C138.375 40.848 138.571 40.6707 138.571 40.316V36.424ZM135.323 36.354C135.323 35.6447 135.542 35.094 135.981 34.702C136.429 34.3007 137.096 34.1 137.983 34.1C138.87 34.1 139.532 34.3007 139.971 34.702C140.419 35.094 140.643 35.6447 140.643 36.354V40.386C140.643 41.0953 140.419 41.6507 139.971 42.052C139.532 42.444 138.87 42.64 137.983 42.64C137.096 42.64 136.429 42.444 135.981 42.052C135.542 41.6507 135.323 41.0953 135.323 40.386V36.354Z" fill="white"/>
<path d="M109.792 7.64H112.832V21.5H109.792V16.02H107.032V21.5H103.992V7.64H107.032V13.34H109.792V7.64ZM117.076 18.08V18.64C117.076 19.0933 117.31 19.32 117.776 19.32C118.176 19.32 118.51 19.2467 118.776 19.1V16.68L117.856 16.92C117.523 17.0133 117.31 17.1333 117.216 17.28C117.123 17.4267 117.076 17.6933 117.076 18.08ZM114.736 9.98C115.47 9.72667 116.516 9.6 117.876 9.6C119.236 9.6 120.21 9.9 120.796 10.5C121.383 11.0867 121.676 11.98 121.676 13.18V21.5H118.856V20.64C118.47 21.24 117.796 21.54 116.836 21.54C115.876 21.54 115.183 21.3133 114.756 20.86C114.33 20.3933 114.116 19.6533 114.116 18.64V17.96C114.116 17.0667 114.31 16.38 114.696 15.9C115.096 15.42 115.736 15.06 116.616 14.82L118.796 14.26V13.16C118.783 12.8133 118.683 12.5733 118.496 12.44C118.31 12.2933 117.97 12.22 117.476 12.22C116.37 12.22 115.456 12.36 114.736 12.64V9.98ZM128.467 9.64H128.807V12.42H128.347C127.6 12.42 126.947 12.5533 126.387 12.82V21.5H123.367V9.7H126.207V10.5C126.887 10.0867 127.36 9.84 127.627 9.76C127.907 9.68 128.187 9.64 128.467 9.64ZM131.312 9.36C130.205 9.36 129.652 8.84 129.652 7.8C129.652 6.74667 130.205 6.22 131.312 6.22C132.432 6.22 132.992 6.74667 132.992 7.8C132.992 8.84 132.432 9.36 131.312 9.36ZM129.812 10.02H132.832V21.5H129.812V10.02ZM134.176 12.82C134.176 11.7533 134.496 10.9533 135.136 10.42C135.79 9.87333 136.836 9.6 138.276 9.6C139.263 9.6 140.076 9.7 140.716 9.9V12.56C140.116 12.36 139.456 12.26 138.736 12.26C138.03 12.26 137.576 12.32 137.376 12.44C137.19 12.56 137.096 12.7533 137.096 13.02V13.18C137.096 13.34 137.143 13.48 137.236 13.6C137.343 13.7067 137.563 13.8733 137.896 14.1L139.516 15.18C140.023 15.5133 140.41 15.88 140.676 16.28C140.956 16.68 141.096 17.18 141.096 17.78V18.28C141.096 20.4933 139.643 21.6 136.736 21.6C135.723 21.6 134.856 21.5133 134.136 21.34V18.64C134.763 18.8267 135.456 18.92 136.216 18.92C136.976 18.92 137.476 18.86 137.716 18.74C137.97 18.6067 138.096 18.4133 138.096 18.16V17.98C138.096 17.78 138.03 17.62 137.896 17.5C137.736 17.34 136.97 16.8067 135.596 15.9C134.65 15.26 134.176 14.4067 134.176 13.34V12.82ZM141.93 12.82C141.93 11.7533 142.25 10.9533 142.89 10.42C143.544 9.87333 144.59 9.6 146.03 9.6C147.017 9.6 147.83 9.7 148.47 9.9V12.56C147.87 12.36 147.21 12.26 146.49 12.26C145.784 12.26 145.33 12.32 145.13 12.44C144.944 12.56 144.85 12.7533 144.85 13.02V13.18C144.85 13.34 144.897 13.48 144.99 13.6C145.097 13.7067 145.317 13.8733 145.65 14.1L147.27 15.18C147.777 15.5133 148.164 15.88 148.43 16.28C148.71 16.68 148.85 17.18 148.85 17.78V18.28C148.85 20.4933 147.397 21.6 144.49 21.6C143.477 21.6 142.61 21.5133 141.89 21.34V18.64C142.517 18.8267 143.21 18.92 143.97 18.92C144.73 18.92 145.23 18.86 145.47 18.74C145.724 18.6067 145.85 18.4133 145.85 18.16V17.98C145.85 17.78 145.784 17.62 145.65 17.5C145.49 17.34 144.724 16.8067 143.35 15.9C142.404 15.26 141.93 14.4067 141.93 13.34V12.82ZM152.584 18.08V18.64C152.584 19.0933 152.817 19.32 153.284 19.32C153.684 19.32 154.017 19.2467 154.284 19.1V16.68L153.364 16.92C153.031 17.0133 152.817 17.1333 152.724 17.28C152.631 17.4267 152.584 17.6933 152.584 18.08ZM150.244 9.98C150.977 9.72667 152.024 9.6 153.384 9.6C154.744 9.6 155.717 9.9 156.304 10.5C156.891 11.0867 157.184 11.98 157.184 13.18V21.5H154.364V20.64C153.977 21.24 153.304 21.54 152.344 21.54C151.384 21.54 150.691 21.3133 150.264 20.86C149.837 20.3933 149.624 19.6533 149.624 18.64V17.96C149.624 17.0667 149.817 16.38 150.204 15.9C150.604 15.42 151.244 15.06 152.124 14.82L154.304 14.26V13.16C154.291 12.8133 154.191 12.5733 154.004 12.44C153.817 12.2933 153.477 12.22 152.984 12.22C151.877 12.22 150.964 12.36 150.244 12.64V9.98Z" fill="#950C0C"/>
<defs>
<filter id="filter0_i_72_116" x="0" y="-4" width="54" height="54" filterUnits="userSpaceOnUse" color-interpolation-filters="sRGB">
<feFlood flood-opacity="0" result="BackgroundImageFix"/>
<feBlend mode="normal" in="SourceGraphic" in2="BackgroundImageFix" result="shape"/>
<feColorMatrix in="SourceAlpha" type="matrix" values="0 0 0 0 0 0 0 0 0 0 0 0 0 0 0 0 0 0 127 0" result="hardAlpha"/>
<feOffset dx="12" dy="-25"/>
<feGaussianBlur stdDeviation="2"/>
<feComposite in2="hardAlpha" operator="arithmetic" k2="-1" k3="1"/>
<feColorMatrix type="matrix" values="0 0 0 0 0 0 0 0 0 0 0 0 0 0 0 0 0 0 0.25 0"/>
<feBlend mode="normal" in2="shape" result="effect1_innerShadow_72_116"/>
</filter>
<linearGradient id="paint0_linear_72_116" x1="25" y1="0" x2="25" y2="50" gradientUnits="userSpaceOnUse">
<stop stop-color="#FF0E01"/>
<stop offset="1" stop-color="#950C0C"/>
</linearGradient>
<linearGradient id="paint1_linear_72_116" x1="25" y1="0" x2="25" y2="50" gradientUnits="userSpaceOnUse">
<stop stop-color="#018526"/>
<stop offset="0.602294" stop-color="#013A0E"/>
</linearGradient>
</defs>
</svg>
